<?xml version="1.0" standalone="no"?>
<!DOCTYPE svg PUBLIC "-//W3C//DTD SVG 20010904//EN"
 "http://www.w3.org/TR/2001/REC-SVG-20010904/DTD/svg10.dtd">
<svg version="1.0" xmlns="http://www.w3.org/2000/svg"
 width="626.000000pt" height="500.000000pt" viewBox="0 0 626.000000 500.000000"
 preserveAspectRatio="xMidYMid meet">

<g transform="translate(0.000000,500.000000) scale(0.100000,-0.100000)"
fill="#000000" stroke="none">
<path d="M1650 3695 c0 -24 -2 -25 -73 -25 -443 0 -850 -229 -1068 -602 -24
-40 -44 -75 -46 -77 -2 -2 -14 1 -27 7 -23 10 -25 8 -49 -46 -39 -86 -74 -219
-93 -344 -20 -134 -14 -269 16 -418 19 -92 81 -274 100 -293 4 -5 17 -4 28 2
19 10 24 5 57 -51 149 -256 378 -450 640 -544 148 -53 215 -66 370 -73 l140
-6 3 -27 c3 -23 7 -27 30 -23 15 2 61 10 102 16 165 25 378 113 525 217 85 59
214 185 275 265 l44 59 -23 17 -22 17 40 67 c23 36 56 102 74 146 l33 80 24
-22 24 -22 -23 27 -23 26 22 89 c12 48 26 139 31 201 5 62 11 117 14 123 4 5
1 9 -4 9 -6 0 -11 20 -11 46 l0 46 60 -4 c50 -4 60 -2 59 11 0 9 -2 11 -5 6
-2 -6 -27 -8 -61 -5 l-57 5 -13 70 c-7 39 -15 85 -19 103 -5 24 -2 38 12 55
19 22 19 22 -2 5 -20 -18 -21 -17 -53 67 -18 47 -36 85 -40 85 -4 0 -8 6 -8
13 0 6 -14 36 -32 65 -35 59 -38 74 -16 92 13 10 10 18 -17 59 -50 73 -176
198 -265 262 -163 118 -355 201 -540 234 -123 21 -133 20 -133 -10z m49 -50
c312 -26 631 -211 837 -485 87 -115 202 -350 171 -350 -9 0 -9 -2 1 -9 14 -9
36 -84 47 -161 6 -41 4 -50 -8 -50 -9 0 -18 -4 -21 -9 -3 -4 6 -6 19 -3 24 4
25 2 25 -42 0 -45 -1 -46 -32 -48 l-33 -1 34 -4 33 -4 -5 -102 c-17 -291 -132
-548 -342 -766 -318 -329 -802 -451 -1235 -309 -498 163 -834 625 -833 1148 1
564 387 1046 942 1176 76 18 227 33 286 28 22 -2 73 -6 114 -9z"/>
<path d="M1438 3543 c6 -2 18 -2 25 0 6 3 1 5 -13 5 -14 0 -19 -2 -12 -5z"/>
<path d="M1738 3533 c6 -2 18 -2 25 0 6 3 1 5 -13 5 -14 0 -19 -2 -12 -5z"/>
<path d="M1250 3510 c-18 -12 -2 -12 25 0 13 6 15 9 5 9 -8 0 -22 -4 -30 -9z"/>
<path d="M1838 3513 c7 -3 16 -2 19 1 4 3 -2 6 -13 5 -11 0 -14 -3 -6 -6z"/>
<path d="M1160 3480 c-8 -5 -10 -10 -5 -10 6 0 17 5 25 10 8 5 11 10 5 10 -5
0 -17 -5 -25 -10z"/>
<path d="M1013 3410 c-18 -11 -33 -22 -33 -25 0 -2 16 5 35 16 19 12 35 23 35
25 0 6 -3 5 -37 -16z"/>
<path d="M2110 3406 c0 -3 9 -10 20 -16 11 -6 20 -8 20 -6 0 3 -9 10 -20 16
-11 6 -20 8 -20 6z"/>
<path d="M1468 3383 c6 -2 18 -2 25 0 6 3 1 5 -13 5 -14 0 -19 -2 -12 -5z"/>
<path d="M919 3349 l-24 -20 28 17 c15 9 27 18 27 20 0 8 -8 4 -31 -17z"/>
<path d="M927 3306 c-4 -11 -1 -13 10 -9 10 4 14 2 10 -4 -3 -5 0 -10 7 -10 7
0 13 6 13 14 0 7 -3 11 -5 8 -3 -3 -11 0 -17 5 -9 8 -14 6 -18 -4z"/>
<path d="M1025 3293 c-19 -13 -18 -14 9 -9 34 6 41 12 24 19 -8 2 -23 -2 -33
-10z"/>
<path d="M900 3270 c6 -11 13 -20 16 -20 2 0 0 9 -6 20 -6 11 -13 20 -16 20
-2 0 0 -9 6 -20z"/>
<path d="M927 3269 c7 -7 15 -10 18 -7 3 3 -2 9 -12 12 -14 6 -15 5 -6 -5z"/>
<path d="M985 3260 c-3 -5 -2 -10 4 -10 5 0 13 5 16 10 3 6 2 10 -4 10 -5 0
-13 -4 -16 -10z"/>
<path d="M774 3228 l-29 -33 33 29 c30 28 37 36 29 36 -2 0 -16 -15 -33 -32z"/>
<path d="M955 3240 c-3 -5 -1 -10 4 -10 6 0 11 5 11 10 0 6 -2 10 -4 10 -3 0
-8 -4 -11 -10z"/>
<path d="M2340 3225 c13 -14 26 -25 28 -25 3 0 -5 11 -18 25 -13 14 -26 25
-28 25 -3 0 5 -11 18 -25z"/>
<path d="M902 3195 c-12 -14 -18 -25 -13 -25 5 0 16 11 25 25 9 14 15 25 13
25 -2 0 -13 -11 -25 -25z"/>
<path d="M706 3152 l-19 -27 24 22 c12 12 21 24 18 27 -2 2 -13 -8 -23 -22z"/>
<path d="M942 3149 c-7 -11 -16 -17 -21 -14 -5 2 -14 -2 -20 -9 -9 -10 -9 -16
-1 -21 6 -4 9 -1 8 7 -2 7 2 12 8 11 13 -2 50 34 43 42 -3 2 -10 -5 -17 -16z"/>
<path d="M830 3125 c-19 -22 -8 -25 13 -3 9 10 13 18 8 18 -5 0 -14 -7 -21
-15z"/>
<path d="M797 3093 c-4 -3 -7 -11 -7 -17 0 -6 5 -5 12 2 6 6 9 14 7 17 -3 3
-9 2 -12 -2z"/>
<path d="M855 3068 c-23 -24 -25 -28 -7 -19 12 6 26 20 32 31 14 27 10 25 -25
-12z"/>
<path d="M2461 3083 c7 -12 15 -20 18 -17 3 2 -3 12 -13 22 -17 16 -18 16 -5
-5z"/>
<path d="M2335 3061 c-3 -5 -2 -12 3 -15 5 -3 9 1 9 9 0 17 -3 19 -12 6z"/>
<path d="M759 3034 c-13 -14 -17 -23 -9 -19 13 5 46 45 37 45 -2 0 -14 -11
-28 -26z"/>
<path d="M802 3010 c-8 -13 -8 -20 -2 -20 6 0 13 7 17 15 9 24 -1 27 -15 5z"/>
<path d="M595 2994 c-9 -15 -12 -23 -6 -20 11 7 35 46 28 46 -3 0 -12 -12 -22
-26z"/>
<path d="M2520 2992 c6 -13 14 -21 18 -18 3 4 -2 14 -12 24 -18 16 -18 16 -6
-6z"/>
<path d="M722 2995 c4 -4 3 -14 -4 -22 -6 -7 -8 -16 -5 -19 3 -3 10 3 16 15 8
15 8 22 -1 27 -7 4 -10 4 -6 -1z"/>
<path d="M775 2970 c-3 -5 -1 -10 4 -10 6 0 11 5 11 10 0 6 -2 10 -4 10 -3 0
-8 -4 -11 -10z"/>
<path d="M2469 2953 l-24 -28 28 24 c25 23 32 31 24 31 -2 0 -14 -12 -28 -27z"/>
<path d="M689 2938 c-1 -7 -1 -16 0 -20 0 -5 -3 -8 -7 -8 -14 0 -33 -48 -22
-55 6 -4 10 2 10 12 0 11 5 24 12 31 12 12 22 52 13 52 -3 0 -6 -6 -6 -12z"/>
<path d="M2424 2932 c5 -8 1 -22 -11 -35 l-18 -22 25 20 c14 11 26 20 28 21 1
1 -5 7 -15 15 -13 11 -15 11 -9 1z"/>
<path d="M546 2893 c-6 -14 -5 -15 5 -6 7 7 10 15 7 18 -3 3 -9 -2 -12 -12z"/>
<path d="M2590 2841 c10 -19 9 -25 -1 -32 -9 -6 3 -8 31 -7 29 1 35 2 18 5
-16 2 -28 8 -28 12 0 4 -7 16 -16 27 -14 18 -15 18 -4 -5z"/>
<path d="M632 2816 c-7 -19 -15 -43 -18 -53 -2 -10 -13 -52 -24 -93 -24 -86
-38 -294 -21 -305 7 -4 11 22 10 82 -1 121 7 172 42 286 29 95 37 156 11 83z"/>
<path d="M2455 2810 c-19 -8 -19 -9 2 -9 28 -1 52 -44 55 -98 1 -7 6 -13 11
-13 11 0 2 43 -18 83 -13 25 -12 27 7 27 26 0 21 5 -12 13 -14 3 -34 1 -45 -3z"/>
<path d="M2548 2803 c7 -3 16 -2 19 1 4 3 -2 6 -13 5 -11 0 -14 -3 -6 -6z"/>
<path d="M669 2753 c-7 -27 -15 -54 -17 -60 -2 -7 1 -13 6 -13 8 0 22 44 26
82 1 3 4 10 9 14 10 10 9 24 -2 24 -5 0 -15 -21 -22 -47z"/>
<path d="M2623 2744 c1 -11 -5 -29 -13 -40 -14 -17 -13 -18 1 -7 9 7 19 10 22
6 10 -9 7 18 -4 42 -8 20 -9 19 -6 -1z"/>
<path d="M491 2734 c0 -11 3 -14 6 -6 3 7 2 16 -1 19 -3 4 -6 -2 -5 -13z"/>
<path d="M2572 2669 c-13 -21 -39 -21 -34 0 1 6 -3 11 -8 11 -13 0 -9 -32 4
-41 5 -4 -1 -12 -13 -18 -22 -12 -29 -31 -10 -31 5 0 8 4 5 9 -3 5 0 11 7 14
9 3 13 -12 15 -58 3 -54 1 -64 -15 -68 -16 -4 -17 -5 0 -6 11 -1 17 -9 17 -26
0 -19 -4 -23 -17 -19 -17 5 -17 5 0 -6 12 -8 17 -24 17 -60 0 -52 -6 -59 -30
-37 -8 6 -6 2 4 -10 14 -17 17 -31 11 -60 -7 -40 -32 -76 -46 -67 -5 3 -9 1
-9 -5 0 -5 -3 -17 -7 -26 -5 -15 -3 -16 15 -6 28 15 28 0 2 -24 -14 -13 -20
-14 -20 -5 0 7 -3 10 -7 6 -5 -4 1 -14 12 -23 20 -15 20 -15 -1 -9 -16 5 -23
0 -33 -20 -6 -15 -10 -29 -7 -31 2 -2 7 5 11 16 6 19 35 31 35 14 0 -4 -16
-38 -36 -77 -72 -140 -187 -271 -315 -359 -89 -61 -129 -80 -251 -122 -262
-89 -530 -67 -776 65 -119 64 -251 176 -312 265 -16 24 -37 51 -46 59 -39 39
-130 278 -141 367 -3 27 -10 52 -16 56 -12 8 -2 -81 17 -141 7 -22 19 -60 26
-83 7 -24 17 -43 22 -43 5 0 6 -4 3 -10 -3 -5 -1 -10 5 -10 6 0 10 -6 9 -12
-4 -27 78 -171 92 -162 5 3 9 -4 9 -15 0 -11 36 -57 83 -106 83 -86 96 -119
45 -109 l-23 5 23 -10 c12 -6 22 -13 22 -16 0 -4 -4 -3 -10 0 -5 3 -10 2 -10
-3 0 -12 34 -42 48 -42 7 0 12 -4 12 -8 0 -5 12 -15 27 -23 16 -8 30 -17 33
-20 6 -8 127 -69 135 -69 4 0 3 5 -1 12 -5 7 -3 8 5 4 7 -5 10 -11 7 -14 -7
-6 46 -27 124 -48 30 -8 62 -17 70 -20 28 -11 105 -16 220 -14 181 2 218 4
213 14 -4 5 6 6 21 2 16 -4 25 -3 22 2 -6 11 51 25 65 16 5 -3 9 -1 9 5 0 6 7
8 16 4 13 -5 13 -8 2 -15 -9 -6 -3 -7 17 -3 37 8 42 12 28 26 -7 7 21 27 96
65 58 31 123 70 144 88 l38 32 -20 25 -20 25 77 80 c83 85 153 186 192 274 30
66 84 119 123 120 16 0 26 -4 22 -10 -3 -5 -2 -10 4 -10 5 0 11 6 14 13 3 8
18 0 43 -23 l39 -35 -37 40 c-21 23 -38 52 -39 65 -1 25 -1 25 -11 -2 -9 -25
-15 -28 -54 -28 -37 0 -44 3 -44 20 0 29 21 70 37 70 7 0 12 5 11 12 -2 7 2
12 9 13 20 0 26 14 9 21 -11 4 -22 -1 -32 -12 -13 -18 -14 -17 -10 11 2 17 5
47 5 68 1 26 5 36 13 31 8 -5 8 -3 2 7 -5 8 -9 30 -10 51 l-1 36 48 0 48 1 4
-37 4 -37 1 37 c1 25 7 38 20 41 10 3 4 5 -12 6 l-30 1 35 37 c18 21 24 29 12
19 -21 -17 -21 -17 -26 6 -3 19 -5 17 -6 -7 -1 -41 -17 -55 -62 -55 l-36 0 -7
53 c-10 79 -9 91 14 109 12 10 20 22 18 28 -2 6 -9 1 -16 -11z m-37 -549 c-10
-11 -22 -20 -27 -20 -5 0 -4 9 2 20 6 11 18 20 27 20 14 0 14 -2 -2 -20z
m-580 -698 c-3 -3 -11 0 -18 7 -9 10 -8 11 6 5 10 -3 15 -9 12 -12z"/>
<path d="M642 2645 c-14 -30 -16 -65 -3 -65 8 0 24 81 17 87 -2 2 -8 -8 -14
-22z"/>
<path d="M472 2640 c0 -14 2 -19 5 -12 2 6 2 18 0 25 -3 6 -5 1 -5 -13z"/>
<path d="M624 2559 c-3 -6 -1 -16 5 -22 8 -8 11 -5 11 11 0 24 -5 28 -16 11z"/>
<path d="M2601 2514 c0 -11 3 -14 6 -6 3 7 2 16 -1 19 -3 4 -6 -2 -5 -13z"/>
<path d="M453 2450 c0 -25 2 -35 4 -22 2 12 2 32 0 45 -2 12 -4 2 -4 -23z"/>
<path d="M624 2333 c3 -16 8 -46 12 -68 4 -22 9 -44 13 -50 3 -5 6 -14 7 -20
10 -62 44 -133 44 -92 0 13 -19 73 -36 117 -4 8 -8 31 -10 50 -6 58 -15 90
-26 90 -5 0 -7 -12 -4 -27z"/>
<path d="M2640 2280 c-8 -5 -10 -10 -3 -10 6 0 9 -9 6 -22 -4 -18 -3 -20 6
-12 7 7 11 21 9 33 -2 15 -7 18 -18 11z"/>
<path d="M2606 2238 c3 -5 10 -6 15 -3 13 9 11 12 -6 12 -8 0 -12 -4 -9 -9z"/>
<path d="M481 2200 c0 -8 4 -24 9 -35 5 -13 9 -14 9 -5 0 8 -4 24 -9 35 -5 13
-9 14 -9 5z"/>
<path d="M2680 2199 c0 -5 5 -7 10 -4 6 3 10 8 10 11 0 2 -4 4 -10 4 -5 0 -10
-5 -10 -11z"/>
<path d="M515 2078 c4 -13 11 -27 16 -33 5 -5 4 5 -2 23 -12 36 -24 44 -14 10z"/>
<path d="M2595 2070 c-3 -5 -1 -10 4 -10 6 0 11 5 11 10 0 6 -2 10 -4 10 -3 0
-8 -4 -11 -10z"/>
<path d="M2566 1998 c-20 -28 -20 -35 -1 -35 8 0 12 4 9 9 -3 5 0 16 7 24 6 8
9 17 6 20 -3 3 -12 -5 -21 -18z"/>
<path d="M776 1941 c-9 -14 50 -95 114 -154 86 -82 96 -70 14 17 -93 99 -122
134 -116 141 3 3 3 5 -1 5 -3 0 -8 -4 -11 -9z"/>
<path d="M580 1938 c0 -4 9 -22 20 -40 11 -18 20 -28 20 -23 0 6 -9 24 -20 40
-11 17 -20 27 -20 23z"/>
<path d="M2512 1894 c-12 -19 -19 -34 -14 -34 9 0 46 59 40 65 -2 2 -13 -12
-26 -31z"/>
<path d="M2245 1806 c-33 -34 -78 -77 -100 -94 -22 -17 -37 -31 -33 -32 20 -1
166 134 191 176 13 23 5 16 -58 -50z"/>
<path d="M637 1826 c-4 -9 -1 -16 5 -16 6 0 17 -8 24 -17 7 -10 13 -13 13 -8
1 6 -8 21 -18 34 -15 20 -19 21 -24 7z"/>
<path d="M2529 1783 c-13 -16 -12 -17 4 -4 9 7 17 15 17 17 0 8 -8 3 -21 -13z"/>
<path d="M2420 1768 c0 -6 -8 -21 -17 -32 -13 -16 -11 -15 9 3 15 13 25 28 22
32 -7 13 -14 11 -14 -3z"/>
<path d="M705 1740 c3 -5 8 -10 11 -10 2 0 4 5 4 10 0 6 -5 10 -11 10 -5 0 -7
-4 -4 -10z"/>
<path d="M2469 1703 c-13 -16 -12 -17 4 -4 16 13 21 21 13 21 -2 0 -10 -8 -17
-17z"/>
<path d="M765 1670 c16 -16 33 -30 39 -30 5 0 -3 14 -19 30 -16 17 -33 30 -39
30 -5 0 3 -13 19 -30z"/>
<path d="M2335 1670 c-16 -16 -26 -32 -24 -35 3 -3 18 9 34 25 16 16 26 32 24
35 -3 3 -18 -9 -34 -25z"/>
<path d="M2389 1613 l-34 -38 38 34 c34 33 42 41 34 41 -2 0 -19 -17 -38 -37z"/>
<path d="M835 1610 c3 -5 16 -15 28 -21 22 -12 22 -12 3 10 -19 21 -43 30 -31
11z"/>
<path d="M1895 1575 c-33 -13 -91 -29 -130 -36 -86 -15 -114 -34 -35 -24 79
11 230 63 230 80 0 6 6 8 -65 -20z"/>
<path d="M1243 1567 c6 -18 79 -37 235 -63 17 -3 32 -1 32 4 0 5 -36 14 -80
21 -44 6 -105 21 -136 31 -37 13 -54 15 -51 7z"/>
<path d="M2249 1559 l-24 -20 30 17 c39 24 40 24 28 24 -6 0 -21 -9 -34 -21z"/>
<path d="M2195 1550 c-16 -11 -25 -20 -19 -20 11 0 64 39 54 40 -3 0 -18 -9
-35 -20z"/>
<path d="M985 1505 c30 -25 59 -39 51 -26 -4 6 -22 18 -39 27 -30 14 -31 14
-12 -1z"/>
<path d="M2100 1488 c-33 -18 -34 -19 -7 -13 22 4 27 3 21 -7 -4 -8 -3 -10 2
-5 5 5 9 14 9 20 0 5 6 12 14 15 9 3 11 0 6 -8 -6 -9 -3 -9 14 -1 26 15 26 16
-2 17 -13 1 -38 -7 -57 -18z"/>
<path d="M1090 1445 c14 -8 30 -14 35 -14 6 0 -1 6 -15 14 -14 8 -29 14 -35
14 -5 0 1 -6 15 -14z"/>
<path d="M2025 1430 c-13 -6 -15 -9 -5 -9 8 0 22 4 30 9 18 12 2 12 -25 0z"/>
<path d="M1864 1402 c4 -7 -7 -13 -29 -18 -19 -3 -35 -10 -35 -14 0 -4 18 -3
40 2 41 11 49 21 28 34 -7 4 -8 3 -4 -4z"/>
<path d="M1240 1391 c8 -4 29 -11 45 -15 19 -4 25 -3 15 3 -8 4 -28 11 -45 15
-19 4 -25 3 -15 -3z"/>
<path d="M1714 1357 l-19 -22 21 18 c17 14 23 15 27 5 4 -9 6 -9 6 -1 2 22
-16 23 -35 0z"/>
<path d="M1360 1360 c8 -5 24 -9 35 -9 l20 0 -20 9 c-11 5 -27 9 -35 9 -13 1
-13 0 0 -9z"/>
<path d="M1650 1350 c-21 -7 -21 -8 -5 -9 11 0 27 4 35 9 18 11 5 11 -30 0z"/>
<path d="M1543 1343 c15 -2 37 -2 50 0 12 2 0 4 -28 4 -27 0 -38 -2 -22 -4z"/>
<path d="M1655 1310 l-30 -8 27 -1 c15 0 30 4 33 9 3 6 5 9 3 9 -2 -1 -16 -5
-33 -9z"/>
<path d="M1463 1303 c9 -2 23 -2 30 0 6 3 -1 5 -18 5 -16 0 -22 -2 -12 -5z"/>
<path d="M4830 3260 c0 -5 7 -10 15 -10 8 0 15 5 15 10 0 6 -7 10 -15 10 -8 0
-15 -4 -15 -10z"/>
<path d="M3969 3103 c-13 -16 -12 -17 4 -4 16 13 21 21 13 21 -2 0 -10 -8 -17
-17z"/>
<path d="M3030 3003 l-65 -68 65 62 65 63 220 3 220 2 -220 3 -221 2 -64 -67z"/>
<path d="M3541 3067 c2 -1 13 -9 24 -17 19 -14 19 -14 6 3 -7 9 -18 17 -24 17
-6 0 -8 -1 -6 -3z"/>
<path d="M3889 3023 c-13 -16 -12 -17 4 -4 16 13 21 21 13 21 -2 0 -10 -8 -17
-17z"/>
<path d="M3849 2983 c-13 -16 -12 -17 4 -4 16 13 21 21 13 21 -2 0 -10 -8 -17
-17z"/>
<path d="M2870 2980 c0 -5 7 -10 15 -10 8 0 15 5 15 10 0 6 -7 10 -15 10 -8 0
-15 -4 -15 -10z"/>
<path d="M3525 2971 c-7 -12 12 -24 25 -16 11 7 4 25 -10 25 -5 0 -11 -4 -15
-9z"/>
<path d="M4430 2946 c0 -2 8 -10 18 -17 15 -13 16 -12 3 4 -13 16 -21 21 -21
13z"/>
<path d="M3087 2927 c-3 -8 1 -14 9 -14 8 0 14 6 14 14 0 7 -4 13 -9 13 -5 0
-11 -6 -14 -13z"/>
<path d="M4481 2889 c5 -11 14 -17 20 -14 15 10 10 22 -11 28 -17 4 -18 2 -9
-14z"/>
<path d="M4320 2860 c0 -5 7 -10 15 -10 8 0 15 5 15 10 0 6 -7 10 -15 10 -8 0
-15 -4 -15 -10z"/>
<path d="M3400 2778 c41 -45 50 -53 50 -45 0 2 -21 23 -47 47 l-48 45 45 -47z"/>
<path d="M4063 2742 c-8 -5 -9 -13 -3 -22 7 -12 10 -12 16 3 8 21 3 29 -13 19z"/>
<path d="M3170 2702 c0 -5 7 -9 15 -9 8 0 15 4 15 9 0 4 -7 8 -15 8 -8 0 -15
-4 -15 -8z"/>
<path d="M4677 2684 c-8 -8 1 -24 14 -24 5 0 9 7 9 15 0 15 -12 20 -23 9z"/>
<path d="M3860 2670 l-125 -6 117 -2 c64 -1 123 -5 132 -8 11 -4 16 -1 16 10
0 9 -3 15 -7 14 -5 -1 -64 -5 -133 -8z"/>
<path d="M4528 2673 c23 -2 61 -2 85 0 23 2 4 4 -43 4 -47 0 -66 -2 -42 -4z"/>
<path d="M3090 2610 c-9 -6 -10 -10 -3 -10 6 0 15 5 18 10 8 12 4 12 -15 0z"/>
<path d="M4134 2600 c-5 -5 -61 -11 -124 -13 -63 -1 2 -3 145 -3 143 0 198 2
122 3 -86 2 -136 7 -132 13 8 13 2 13 -11 0z"/>
<path d="M4855 2590 c-20 -5 -23 -8 -10 -9 11 -1 31 -4 44 -8 17 -4 22 -2 19
7 -5 17 -16 19 -53 10z"/>
<path d="M3699 2573 c-12 -16 -12 -17 1 -7 8 6 22 14 30 17 13 5 12 6 -1 6 -9
1 -23 -7 -30 -16z"/>
<path d="M3778 2583 c18 -2 45 -2 60 0 15 2 0 4 -33 4 -33 0 -45 -2 -27 -4z"/>
<path d="M4428 2583 c6 -2 18 -2 25 0 6 3 1 5 -13 5 -14 0 -19 -2 -12 -5z"/>
<path d="M4528 2583 c34 -2 90 -2 125 0 34 2 6 3 -63 3 -69 0 -97 -1 -62 -3z"/>
<path d="M4758 2583 c12 -2 32 -2 45 0 12 2 2 4 -23 4 -25 0 -35 -2 -22 -4z"/>
<path d="M3512 2568 c6 -18 28 -21 28 -4 0 9 -7 16 -16 16 -9 0 -14 -5 -12
-12z"/>
<path d="M3639 2513 l-34 -38 38 34 c20 19 37 36 37 38 0 8 -8 0 -41 -34z"/>
<path d="M3004 2518 l-19 -23 23 19 c21 18 27 26 19 26 -2 0 -12 -10 -23 -22z"/>
<path d="M3216 2523 c-11 -11 -6 -23 9 -23 8 0 15 4 15 9 0 13 -16 22 -24 14z"/>
<path d="M4240 2480 c0 -5 7 -10 15 -10 8 0 15 5 15 10 0 6 -7 10 -15 10 -8 0
-15 -4 -15 -10z"/>
<path d="M3789 2453 l-24 -28 28 24 c15 14 27 26 27 28 0 8 -8 1 -31 -24z"/>
<path d="M3950 2457 c0 -2 15 -16 33 -33 l32 -29 -29 33 c-28 30 -36 37 -36
29z"/>
<path d="M3545 2420 c-4 -6 -10 -8 -14 -6 -4 3 -8 -1 -8 -9 0 -13 4 -12 19 2
18 16 22 23 14 23 -3 0 -8 -5 -11 -10z"/>
<path d="M3739 2403 c-13 -16 -12 -17 4 -4 16 13 21 21 13 21 -2 0 -10 -8 -17
-17z"/>
<path d="M3694 2358 l-19 -23 23 19 c21 18 27 26 19 26 -2 0 -12 -10 -23 -22z"/>
<path d="M3459 2333 c-13 -16 -12 -17 4 -4 9 7 17 15 17 17 0 8 -8 3 -21 -13z"/>
<path d="M4760 2346 c0 -2 8 -10 18 -17 15 -13 16 -12 3 4 -13 16 -21 21 -21
13z"/>
<path d="M3414 2288 l-19 -23 23 19 c12 11 22 21 22 23 0 8 -8 2 -26 -19z"/>
<path d="M4827 2270 c3 -11 12 -20 19 -20 20 0 17 18 -5 29 -16 9 -18 8 -14
-9z"/>
<path d="M3015 2270 c4 -6 11 -8 16 -5 14 9 11 15 -7 15 -8 0 -12 -5 -9 -10z"/>
<path d="M3579 2243 c-13 -16 -12 -17 4 -4 16 13 21 21 13 21 -2 0 -10 -8 -17
-17z"/>
<path d="M3100 2180 c0 -5 5 -10 10 -10 6 0 10 5 10 10 0 6 -4 10 -10 10 -5 0
-10 -4 -10 -10z"/>
<path d="M3870 2129 c0 -5 5 -7 10 -4 6 3 10 8 10 11 0 2 -4 4 -10 4 -5 0 -10
-5 -10 -11z"/>
<path d="M5425 2001 c-3 -5 -1 -12 5 -16 5 -3 10 1 10 9 0 18 -6 21 -15 7z"/>
</g>
</svg>
