<svg width="20" height="20" viewBox="0 0 20 20" fill="none" xmlns="http://www.w3.org/2000/svg">
<path fill-rule="evenodd" clip-rule="evenodd" d="M10.148 0.0237888L17.7035 2.52376C17.881 2.58278 18 2.74024 18 2.91684V7.91678C18 14.3873 16.9765 16.7521 10.2001 19.9552C10.1372 19.985 10.0686 20 10 20C9.93142 20 9.86283 19.9849 9.79992 19.9552C3.02346 16.7521 2 14.3873 2 7.91678V2.91684C2 2.74024 2.11896 2.58274 2.29646 2.52376L9.852 0.0237888C9.94746 -0.0079296 10.0525 -0.0079296 10.148 0.0237888ZM10.98 8.88927C11.4791 8.57837 11.7778 8.0592 11.7778 7.5001C11.7778 6.58093 10.98 5.83348 9.99996 5.83344C9.01992 5.83344 8.22217 6.58093 8.22217 7.5001C8.22217 8.0592 8.52079 8.57841 9.01992 8.88927C9.16229 8.97798 9.23783 9.13544 9.21438 9.29454L8.73346 12.5001H11.2665L10.7855 9.29454C10.7621 9.13544 10.8376 8.97798 10.98 8.88927Z" fill="#2196F3"/>
</svg>
