<?xml version="1.0" encoding="utf-8"?>
<!-- Generator: Adobe Illustrator 16.0.0, SVG Export Plug-In . SVG Version: 6.00 Build 0)  -->
<!DOCTYPE svg PUBLIC "-//W3C//DTD SVG 1.1//EN" "http://www.w3.org/Graphics/SVG/1.1/DTD/svg11.dtd">
<svg version="1.1" id="Layer_1" xmlns="http://www.w3.org/2000/svg" xmlns:xlink="http://www.w3.org/1999/xlink" x="0px" y="0px"
	 width="100px" height="100px" viewBox="0 0 100 100" enable-background="new 0 0 100 100" xml:space="preserve">
<path fill="#EFC75E" d="M64.868,16.203L82.695,34.03l-55.241,55.24L9.628,71.443L64.868,16.203z"/>
<rect x="15.036" y="59.256" transform="matrix(0.7071 -0.7071 0.7071 0.7071 -29.7581 53.3079)" fill="#F4D88F" width="68.867" height="6.638"/>
<polygon fill="#E3BD59" points="9.63,71.446 14.277,76.094 65.843,21.816 60.901,20.17 "/>
<path fill="#E19178" d="M82.017,6.482l10.41,10.407c2.094,2.097,2.1,5.254,0.005,7.351L81.037,35.633L63.031,18.064L74.424,6.672
	C76.521,4.572,79.92,4.385,82.017,6.482z"/>
<path fill="#CB836D" d="M77.234,9.293c2.098-2.097,5.496-2.097,7.594,0l7.604,7.602l-0.005-0.005L82.017,6.482
	c-2.097-2.098-5.495-1.91-7.593,0.189L63.031,18.064l2.812,2.621L77.234,9.293z"/>
<polygon fill="#ECEEEE" points="56.451,24.636 74.272,42.455 82.695,34.03 64.868,16.203 55.301,25.77 55.31,25.78 "/>
<polygon fill="#DBDEE0" points="9.63,71.446 4,94.903 27.454,89.271 "/>
<polygon fill="#BDBFC1" points="9.622,89.281 5.348,89.281 4,94.903 9.622,93.556 "/>
</svg>
